<svg width="513" height="513" viewBox="0 0 513 513" fill="none" xmlns="http://www.w3.org/2000/svg">
<mask id="mask0" mask-type="alpha" maskUnits="userSpaceOnUse" x="0" y="0" width="513" height="513">
<circle cx="256.5" cy="256.5" r="256.5" fill="#C4C4C4"/>
</mask>
<g mask="url(#mask0)">
<rect width="513" height="513" fill="white"/>
<path d="M105.812 201.73L52 256.255L105.809 310.774C106.968 311.955 108.351 312.893 109.877 313.533C111.403 314.174 113.041 314.504 114.696 314.505C116.351 314.505 117.99 314.176 119.516 313.537C121.042 312.897 122.426 311.96 123.586 310.779C125.946 308.378 127.27 305.146 127.271 301.778C127.272 298.411 125.951 295.178 123.592 292.775L89.4775 258.226L79.1828 264.729L123.594 219.729C125.96 217.332 127.282 214.097 127.273 210.729C127.28 207.359 125.956 204.123 123.589 201.724C122.428 200.544 121.045 199.607 119.518 198.968C117.992 198.329 116.354 197.999 114.699 198C113.044 198.001 111.406 198.331 109.88 198.971C108.354 199.611 106.971 200.549 105.812 201.73ZM408.188 201.733L462 256.255L408.191 310.774C407.032 311.955 405.649 312.893 404.123 313.533C402.597 314.174 400.959 314.504 399.304 314.505C397.649 314.505 396.01 314.176 394.484 313.537C392.958 312.897 391.574 311.96 390.414 310.779C388.054 308.378 386.73 305.146 386.729 301.778C386.728 298.411 388.049 295.178 390.408 292.775L424.523 258.229L434.817 264.731L390.403 219.732C388.038 217.335 386.715 214.1 386.724 210.732C386.717 207.362 388.041 204.126 390.408 201.727C391.569 200.547 392.952 199.609 394.479 198.969C396.006 198.329 397.644 198 399.3 198C400.955 198.001 402.594 198.331 404.12 198.972C405.646 199.613 407.029 200.551 408.188 201.733ZM365.129 206.119C363.905 202.979 361.489 200.45 358.408 199.085C356.897 198.41 355.266 198.043 353.612 198.005C351.957 197.967 350.312 198.259 348.771 198.864C347.231 199.47 345.826 200.375 344.64 201.529C343.453 202.683 342.508 204.062 341.861 205.585L302.602 296.664C301.277 299.759 301.228 303.253 302.466 306.385C303.689 309.525 306.106 312.053 309.187 313.418C310.698 314.093 312.328 314.461 313.983 314.498C315.638 314.536 317.283 314.244 318.824 313.639C320.364 313.034 321.769 312.128 322.955 310.974C324.142 309.82 325.086 308.442 325.734 306.919L364.993 215.84C366.318 212.744 366.367 209.251 365.129 206.119Z" fill="url(#paint0_linear)"/>
<path d="M248.925 236.801C245.383 234.115 246.003 249.004 226.45 251.291C217.481 252.34 209.875 250.712 203.444 248.552C210.48 243.919 215.129 235.961 215.129 226.908C215.129 212.6 203.531 201 189.222 201C176.732 201 166.314 209.836 163.863 221.596C154.546 219.637 147 217.892 147 225.886C147 233.316 158.066 240.717 169.834 245.181C157.583 250.651 149.04 262.932 149.04 277.215C149.04 296.585 164.85 310.275 184.114 312.289C211.468 315.148 243.919 310.463 256.172 285.856C264.937 268.257 261 245.953 248.925 236.801V236.801Z" fill="url(#paint1_linear)"/>
</g>
<defs>
<linearGradient id="paint0_linear" x1="52" y1="198" x2="462" y2="315" gradientUnits="userSpaceOnUse">
<stop stop-color="#08C7D6"/>
<stop offset="1" stop-color="#02023E"/>
</linearGradient>
<linearGradient id="paint1_linear" x1="147" y1="201" x2="261" y2="319.5" gradientUnits="userSpaceOnUse">
<stop stop-color="#08C7D6"/>
<stop offset="1" stop-color="#02023E"/>
</linearGradient>
</defs>
</svg>
